<svg xmlns="http://www.w3.org/2000/svg" width="20" height="14.312" viewBox="0 0 20 14.312">
  <g id="bed_1_" data-name="bed (1)" transform="translate(0 -72.806)">
    <g id="Group_4301" data-name="Group 4301" transform="translate(0 72.806)">
      <path id="Path_47310" data-name="Path 47310" d="M18.144,79.041V74.587a1.783,1.783,0,0,0-1.781-1.781H3.636a1.783,1.783,0,0,0-1.781,1.781v4.454A2.534,2.534,0,0,0,0,81.478v3.384a.594.594,0,0,0,.594.594H1.856v1.068a.594.594,0,1,0,1.187,0V85.456H16.957v1.068a.594.594,0,1,0,1.188,0V85.456h1.262A.594.594,0,0,0,20,84.862V81.478A2.534,2.534,0,0,0,18.144,79.041Zm-15.1-4.454a.594.594,0,0,1,.593-.593H16.364a.594.594,0,0,1,.593.593v4.362H15.566V77.757a1.882,1.882,0,0,0-1.879-1.879h-2.4a1.872,1.872,0,0,0-1.286.51,1.872,1.872,0,0,0-1.286-.51h-2.4a1.882,1.882,0,0,0-1.879,1.879v1.192H3.043Zm11.335,3.17v1.192H10.594V77.757a.693.693,0,0,1,.692-.692h2.4A.693.693,0,0,1,14.378,77.757Zm-4.972,0v1.192H5.622V77.757a.693.693,0,0,1,.692-.692h2.4A.693.693,0,0,1,9.406,77.757Zm9.406,6.512H1.188v-2.79A1.344,1.344,0,0,1,2.53,80.136H17.47a1.344,1.344,0,0,1,1.342,1.342v2.79Z" transform="translate(0 -72.806)" fill="#004884"/>
    </g>
  </g>
</svg>
