<svg xmlns="http://www.w3.org/2000/svg" width="25.577" height="18.691" viewBox="0 0 25.577 18.691">
  <g id="cable-tv" transform="translate(-5.516 -17.351)">
    <path id="Path_8199" data-name="Path 8199" d="M7.556,44.319H22.04a1.234,1.234,0,0,1,1.24,1.248v2.774a1.235,1.235,0,0,1-1.24,1.246H7.556a1.235,1.235,0,0,1-1.241-1.246V45.567a1.234,1.234,0,0,1,1.241-1.248Zm1.407-4.588h11.67c.594,0,.949.666,1.157,1.248l.961,2.778a1.925,1.925,0,0,0-.711-.138H7.556a1.933,1.933,0,0,0-.711.138l.963-2.778C8.014,40.4,8.368,39.732,8.963,39.732Zm0-.7c-1.04,0-1.518.87-1.812,1.716l-1.424,4.1a2.289,2.289,0,0,0-.11.717v2.775a1.947,1.947,0,0,0,1.94,1.943H22.04a1.947,1.947,0,0,0,1.941-1.943V45.566a2.292,2.292,0,0,0-.112-.717l-1.424-4.1c-.293-.846-.772-1.716-1.812-1.716Z" transform="translate(0 -14.342)" fill="#004884" stroke="#004884" stroke-width="0.2"/>
    <path id="Path_8200" data-name="Path 8200" d="M13.284,59.529a1.041,1.041,0,1,0,1.042,1.04A1.045,1.045,0,0,0,13.284,59.529Zm0,.7a.343.343,0,1,1-.343.342A.338.338,0,0,1,13.284,60.227Z" transform="translate(-4.405 -27.959)" fill="#004884" stroke="#004884" stroke-width="0.2"/>
    <path id="Path_8201" data-name="Path 8201" d="M20.85,59.529a1.041,1.041,0,1,0,1.04,1.04A1.046,1.046,0,0,0,20.85,59.529Zm0,.7a.343.343,0,1,1-.344.342A.338.338,0,0,1,20.85,60.227Z" transform="translate(-9.43 -27.959)" fill="#004884" stroke="#004884" stroke-width="0.2"/>
    <g id="Group_4175" data-name="Group 4175" transform="translate(24.369 17.451)">
      <path id="Path_8202" data-name="Path 8202" d="M66.252,17.451a1.613,1.613,0,0,0-1.61,1.61l0,15.274a1.614,1.614,0,0,0,1.612,1.608h3.4a1.614,1.614,0,0,0,1.61-1.608l0-15.274a1.616,1.616,0,0,0-1.612-1.61Zm0,.7h3.4a.9.9,0,0,1,.914.909v11.9H65.342v-11.9A.9.9,0,0,1,66.252,18.152Zm-.91,13.514h5.225v2.669a.9.9,0,0,1-.91.911h-3.4a.9.9,0,0,1-.914-.911V31.666Z" transform="translate(-64.642 -17.451)" fill="#004884" stroke="#004884" stroke-width="0.2"/>
      <path id="Path_8203" data-name="Path 8203" d="M70.741,41.4a1.9,1.9,0,1,0,1.905,1.905A1.908,1.908,0,0,0,70.741,41.4Zm0,.7a1.209,1.209,0,1,1-1.206,1.209A1.2,1.2,0,0,1,70.741,42.1Z" transform="translate(-67.429 -33.367)" fill="#004884" stroke="#004884" stroke-width="0.2"/>
      <path id="Path_8204" data-name="Path 8204" d="M69.743,25.055a.35.35,0,1,0,0,.7h.613a.35.35,0,0,0,0-.7Z" transform="translate(-67.798 -22.504)" fill="#004884" stroke="#004884" stroke-width="0.2"/>
      <path id="Path_8205" data-name="Path 8205" d="M76.054,25.055a.35.35,0,0,0,0,.7h.617a.35.35,0,1,0,0-.7Z" transform="translate(-71.993 -22.504)" fill="#004884" stroke="#004884" stroke-width="0.2"/>
      <path id="Path_8206" data-name="Path 8206" d="M69.678,29.7a.348.348,0,1,0,.035.7h.613a.348.348,0,1,0,0-.7h-.613A.121.121,0,0,0,69.678,29.7Z" transform="translate(-67.767 -25.592)" fill="#004884" stroke="#004884" stroke-width="0.2"/>
      <path id="Path_8207" data-name="Path 8207" d="M75.99,29.7a.348.348,0,1,0,.033.7h.617a.348.348,0,1,0,0-.7h-.617A.11.11,0,0,0,75.99,29.7Z" transform="translate(-71.962 -25.592)" fill="#004884" stroke="#004884" stroke-width="0.2"/>
      <path id="Path_8208" data-name="Path 8208" d="M69.709,34.356a.349.349,0,0,0,.035.7h.613a.348.348,0,1,0,0-.7h-.613A.111.111,0,0,0,69.709,34.356Z" transform="translate(-67.798 -28.683)" fill="#004884" stroke="#004884" stroke-width="0.2"/>
      <path id="Path_8209" data-name="Path 8209" d="M76.02,34.356a.349.349,0,0,0,.033.7h.617a.348.348,0,1,0,0-.7h-.617A.1.1,0,0,0,76.02,34.356Z" transform="translate(-71.992 -28.683)" fill="#004884" stroke="#004884" stroke-width="0.2"/>
    </g>
    <path id="Path_8210" data-name="Path 8210" d="M40.717,58.567a.36.36,0,0,0-.24.1,1.855,1.855,0,0,0-.4,2.007,1.827,1.827,0,0,0,3.382,0,1.856,1.856,0,0,0-.4-2.007.349.349,0,1,0-.5.491,1.153,1.153,0,0,1,.248,1.25,1.129,1.129,0,0,1-2.092,0,1.162,1.162,0,0,1,.245-1.25A.347.347,0,0,0,40.717,58.567Z" transform="translate(-22.809 -27.315)" fill="#004884" stroke="#004884" stroke-width="0.2"/>
    <path id="Path_8211" data-name="Path 8211" d="M44.692,57.169a.349.349,0,0,0-.341.353l-.007,1.467a.349.349,0,0,0,.7,0l.005-1.467A.35.35,0,0,0,44.692,57.169Z" transform="translate(-25.733 -26.391)" fill="#004884" stroke="#004884" stroke-width="0.2"/>
  </g>
</svg>
