<svg id="g2505" xmlns="http://www.w3.org/2000/svg" xmlns:xlink="http://www.w3.org/1999/xlink" width="22.688" height="22.688" viewBox="0 0 22.688 22.688">
  <defs>
    <clipPath id="clip-path">
      <path id="path2511" d="M0-682.665H22.688v22.688H0Z" transform="translate(0 682.665)" fill="#004884"/>
    </clipPath>
  </defs>
  <g id="g2507" transform="translate(0 0)">
    <g id="g2509" clip-path="url(#clip-path)">
      <g id="g2515" transform="translate(4.033 0.665)">
        <path id="path2517" d="M-212.688-621.306c-2.659-3.988-7.312-9.394-7.312-14.047a7.32,7.32,0,0,1,7.312-7.312,7.32,7.32,0,0,1,7.312,7.312C-205.376-630.7-210.029-625.294-212.688-621.306Z" transform="translate(219.999 642.665)" fill="none" stroke="#004884" stroke-linecap="round" stroke-linejoin="round" stroke-width="0.8"/>
      </g>
      <g id="g2519" transform="translate(8.021 4.653)">
        <path id="path2521" d="M-96.676-193.353A3.327,3.327,0,0,1-100-196.676,3.327,3.327,0,0,1-96.676-200a3.327,3.327,0,0,1,3.324,3.323A3.327,3.327,0,0,1-96.676-193.353Z" transform="translate(100 199.999)" fill="none" stroke="#004884" stroke-linecap="round" stroke-linejoin="round" stroke-width="0.8"/>
      </g>
    </g>
  </g>
</svg>
