<svg id="Group_4035" data-name="Group 4035" xmlns="http://www.w3.org/2000/svg" width="17.133" height="16.35" viewBox="0 0 17.133 16.35">
  <g id="Group_4034" data-name="Group 4034" transform="translate(0 0)">
    <path id="Path_7966" data-name="Path 7966" d="M17.075,216.879a1.178,1.178,0,0,0-.951-.8l-4.5-.654-2.011-4.071a1.224,1.224,0,0,0-2.111,0l-2.011,4.071-4.486.654a1.177,1.177,0,0,0-.651,2.009l3.252,3.161-.766,4.474a1.177,1.177,0,0,0,1.71,1.241l4.008-2.113,4.02,2.113a1.174,1.174,0,0,0,.548.135,1.194,1.194,0,0,0,.695-.224,1.181,1.181,0,0,0,.469-1.153l-.766-4.474,3.252-3.161A1.176,1.176,0,0,0,17.075,216.879Z" transform="translate(0 -210.749)" fill="#fff"/>
  </g>
</svg>
