<svg xmlns="http://www.w3.org/2000/svg" width="17.133" height="16.35" viewBox="0 0 17.133 16.35">
  <g id="Group_4043" data-name="Group 4043" transform="translate(0)">
    <g id="Group_4042" data-name="Group 4042" transform="translate(0 0)">
      <path id="Path_7970" data-name="Path 7970" d="M434.231,216.88a1.178,1.178,0,0,0-.951-.8l-4.5-.653-2.011-4.071a1.224,1.224,0,0,0-2.111,0l-2.011,4.071-4.486.653a1.177,1.177,0,0,0-.651,2.009l3.252,3.161L420,225.723a1.177,1.177,0,0,0,1.71,1.241l4.008-2.113,4.02,2.113a1.173,1.173,0,0,0,.547.135,1.194,1.194,0,0,0,.695-.224,1.182,1.182,0,0,0,.469-1.153l-.766-4.474,3.252-3.161A1.176,1.176,0,0,0,434.231,216.88Zm-5.64,3.112a1.178,1.178,0,0,0-.34,1.043l.469,2.734-2.457-1.292a1.174,1.174,0,0,0-1.1,0l-2.444,1.288.469-2.73a1.176,1.176,0,0,0-.34-1.043l-1.983-1.927,2.733-.4a1.178,1.178,0,0,0,.885-.644l1.228-2.488,1.228,2.488a1.174,1.174,0,0,0,.887.644l2.743.4Z" transform="translate(-417.155 -210.749)" fill="#fff"/>
    </g>
  </g>
</svg>
