<svg xmlns="http://www.w3.org/2000/svg" width="22.195" height="21.168" viewBox="0 0 22.195 21.168">
  <g id="Group_3961" data-name="Group 3961" transform="translate(1298.214 -4655.377)">
    <path id="Path_7922" data-name="Path 7922" d="M487.1,7.141a.672.672,0,1,0,.864.4.672.672,0,0,0-.864-.4m.315,2.781a.672.672,0,1,0,.4-.864.672.672,0,0,0-.4.864M485.28,9.33a.672.672,0,1,0-.864-.4.672.672,0,0,0,.864.4m1.577-2.846a.672.672,0,1,0-.864-.4.672.672,0,0,0,.864.4m10.277,6.11H479.391V3.18a2.057,2.057,0,0,1,3.279-1.652.553.553,0,0,0-.07.064l-.373.431a.56.56,0,1,0,.847.734l.282-.326.8-.316,1.811.2.208.557-3.824,1.5-.314-.862a.56.56,0,1,0-1.053.383l.51,1.4a.561.561,0,0,0,.732.33L487.1,3.708a.56.56,0,0,0,.32-.718l-.522-1.4a.56.56,0,0,0-.465-.361L484.143.984a.554.554,0,0,0-.265.036l-.074.029A3.179,3.179,0,0,0,478.27,3.18v9.976a.56.56,0,0,0,.56.56c.012,0,.023,0,.035,0s.023,0,.035,0h16.847V15.8a3.335,3.335,0,0,1-3.341,3.321h-11.62a3.335,3.335,0,0,1-3.341-3.321V13.384a.562.562,0,0,0-.012-.114.561.561,0,0,0-.549-.674h-.825a.56.56,0,0,0,0,1.121h.265V15.8a4.447,4.447,0,0,0,2.682,4.072l-.235.5a.56.56,0,1,0,1.014.478l.311-.66a4.5,4.5,0,0,0,.69.053h11.62a4.47,4.47,0,0,0,1.025-.12l.343.727a.56.56,0,0,0,1.014-.478l-.3-.642a4.443,4.443,0,0,0,2.383-3.928V13.716h.265a.56.56,0,1,0,0-1.121M484.965,6.549a.672.672,0,1,0-.4.864.672.672,0,0,0,.4-.864m1.026,4.7a.672.672,0,1,0-.864-.4.672.672,0,0,0,.864.4" transform="translate(-1773.714 4655.373)" fill="#004884"/>
  </g>
</svg>
