<svg xmlns="http://www.w3.org/2000/svg" width="20.401" height="16.916" viewBox="0 0 20.401 16.916">
  <g id="group_2_" data-name="group (2)" transform="translate(0 -43.729)">
    <g id="Group_4294" data-name="Group 4294" transform="translate(0 51.138)">
      <g id="Group_4293" data-name="Group 4293">
        <path id="Path_47306" data-name="Path 47306" d="M17.412,231.213h-2a2.98,2.98,0,0,0-.785.105,2.991,2.991,0,0,0-2.665-1.638H8.435a2.991,2.991,0,0,0-2.665,1.638,2.98,2.98,0,0,0-.785-.105h-2A2.992,2.992,0,0,0,0,234.2v3.192a1.8,1.8,0,0,0,1.793,1.793H18.608a1.8,1.8,0,0,0,1.793-1.793V234.2A2.992,2.992,0,0,0,17.412,231.213ZM5.447,232.669v5.323H1.793a.6.6,0,0,1-.6-.6V234.2a1.8,1.8,0,0,1,1.793-1.793h2a1.787,1.787,0,0,1,.469.063C5.45,232.536,5.447,232.6,5.447,232.669Zm8.311,5.323H6.642v-5.323a1.8,1.8,0,0,1,1.793-1.793h3.53a1.8,1.8,0,0,1,1.793,1.793Zm5.447-.6a.6.6,0,0,1-.6.6H14.954v-5.323c0-.066,0-.132-.007-.2a1.789,1.789,0,0,1,.469-.063h2a1.8,1.8,0,0,1,1.793,1.793Z" transform="translate(0 -229.68)" fill="#004783"/>
      </g>
    </g>
    <g id="Group_4296" data-name="Group 4296" transform="translate(1.331 47.027)">
      <g id="Group_4295" data-name="Group 4295">
        <path id="Path_47307" data-name="Path 47307" d="M36.07,126.5a2.656,2.656,0,1,0,2.656,2.656A2.659,2.659,0,0,0,36.07,126.5Zm0,4.116a1.46,1.46,0,1,1,1.46-1.46A1.462,1.462,0,0,1,36.069,130.62Z" transform="translate(-33.414 -126.504)" fill="#004783"/>
      </g>
    </g>
    <g id="Group_4298" data-name="Group 4298" transform="translate(6.653 43.729)">
      <g id="Group_4297" data-name="Group 4297" transform="translate(0 0)">
        <path id="Path_47308" data-name="Path 47308" d="M170.51,43.729a3.548,3.548,0,1,0,3.548,3.548A3.552,3.552,0,0,0,170.51,43.729Zm0,5.9a2.352,2.352,0,1,1,2.352-2.352A2.355,2.355,0,0,1,170.51,49.629Z" transform="translate(-166.962 -43.729)" fill="#004783"/>
      </g>
    </g>
    <g id="Group_4300" data-name="Group 4300" transform="translate(13.758 47.027)">
      <g id="Group_4299" data-name="Group 4299">
        <path id="Path_47309" data-name="Path 47309" d="M347.95,126.5a2.656,2.656,0,1,0,2.656,2.656A2.659,2.659,0,0,0,347.95,126.5Zm0,4.116a1.46,1.46,0,1,1,1.46-1.46A1.462,1.462,0,0,1,347.95,130.62Z" transform="translate(-345.294 -126.504)" fill="#004783"/>
      </g>
    </g>
  </g>
</svg>
