<svg id="Group_4370" data-name="Group 4370" xmlns="http://www.w3.org/2000/svg" xmlns:xlink="http://www.w3.org/1999/xlink" width="21" height="21" viewBox="0 0 21 21">
  <defs>
    <clipPath id="clip-path">
      <rect id="Rectangle_3705" data-name="Rectangle 3705" width="21" height="21" fill="#004783" stroke="#fff" stroke-width="1"/>
    </clipPath>
  </defs>
  <g id="Group_4369" data-name="Group 4369" clip-path="url(#clip-path)">
    <path id="Path_47329" data-name="Path 47329" d="M10.673,1.923c2.85,0,3.187.011,4.313.062a5.9,5.9,0,0,1,1.982.368,3.307,3.307,0,0,1,1.227.8,3.307,3.307,0,0,1,.8,1.227,5.91,5.91,0,0,1,.368,1.982c.051,1.126.062,1.463.062,4.313s-.011,3.187-.062,4.313a5.91,5.91,0,0,1-.368,1.982,3.534,3.534,0,0,1-2.026,2.026,5.9,5.9,0,0,1-1.982.368c-1.125.051-1.463.062-4.313.062s-3.188-.011-4.313-.062a5.9,5.9,0,0,1-1.982-.368,3.307,3.307,0,0,1-1.227-.8,3.307,3.307,0,0,1-.8-1.227,5.9,5.9,0,0,1-.368-1.982c-.051-1.126-.062-1.463-.062-4.313s.011-3.187.062-4.313a5.9,5.9,0,0,1,.368-1.982,3.307,3.307,0,0,1,.8-1.227,3.307,3.307,0,0,1,1.227-.8A5.9,5.9,0,0,1,6.36,1.985c1.126-.051,1.463-.062,4.313-.062m0-1.923c-2.9,0-3.262.012-4.4.064a7.835,7.835,0,0,0-2.591.5A5.231,5.231,0,0,0,1.791,1.791,5.231,5.231,0,0,0,.56,3.682a7.835,7.835,0,0,0-.5,2.591C.012,7.411,0,7.775,0,10.673s.012,3.262.064,4.4a7.835,7.835,0,0,0,.5,2.591,5.231,5.231,0,0,0,1.231,1.891,5.234,5.234,0,0,0,1.891,1.231,7.835,7.835,0,0,0,2.591.5c1.138.052,1.5.064,4.4.064s3.262-.012,4.4-.064a7.835,7.835,0,0,0,2.591-.5,5.457,5.457,0,0,0,3.122-3.122,7.835,7.835,0,0,0,.5-2.591c.052-1.138.064-1.5.064-4.4s-.012-3.262-.064-4.4a7.835,7.835,0,0,0-.5-2.591,5.234,5.234,0,0,0-1.231-1.891A5.231,5.231,0,0,0,17.665.56a7.835,7.835,0,0,0-2.591-.5C13.936.012,13.572,0,10.673,0" fill="#004783" stroke="#fff" stroke-width="1"/>
    <path id="Path_47330" data-name="Path 47330" d="M26.157,20.676a5.481,5.481,0,1,0,5.481,5.481,5.481,5.481,0,0,0-5.481-5.481m0,9.039a3.558,3.558,0,1,1,3.558-3.558,3.558,3.558,0,0,1-3.558,3.558" transform="translate(-15.483 -15.483)" fill="#004783" stroke="#fff" stroke-width="1"/>
    <path id="Path_47331" data-name="Path 47331" d="M62.649,15.994a1.281,1.281,0,1,1-1.281-1.281,1.281,1.281,0,0,1,1.281,1.281" transform="translate(-44.997 -11.018)" fill="#004783" stroke="#fff" stroke-width="1"/>
  </g>
</svg>
