<svg id="home-address" xmlns="http://www.w3.org/2000/svg" width="23.144" height="20.757" viewBox="0 0 23.144 20.757">
  <g id="Group_4281" data-name="Group 4281" transform="translate(0 20.034)">
    <path id="Path_47296" data-name="Path 47296" d="M15.658,59.423H.362A.362.362,0,0,1,0,59.062.342.342,0,0,1,.362,58.7h15.3a.362.362,0,0,1,0,.723Z" transform="translate(0 -58.7)" fill="#004884"/>
  </g>
  <g id="Group_4288" data-name="Group 4288">
    <g id="Group_4282" data-name="Group 4282" transform="translate(2.206 10.812)">
      <path id="Path_47297" data-name="Path 47297" d="M19.552,43.144H6.462a.362.362,0,0,1-.362-.362V33.562a.362.362,0,0,1,.362-.362.342.342,0,0,1,.362.362v8.86H19.552a.362.362,0,1,1,0,.723Z" transform="translate(-6.1 -33.2)" fill="#004884"/>
    </g>
    <g id="Group_4283" data-name="Group 4283">
      <path id="Path_47298" data-name="Path 47298" d="M1.627,15.2a1.583,1.583,0,0,1-1.157-.47A1.673,1.673,0,0,1,0,13.57a1.886,1.886,0,0,1,.434-1.121L8.715,4.168a2.925,2.925,0,0,1,4.159,0l3.544,3.544a.358.358,0,1,1-.506.506L12.367,4.674a2.226,2.226,0,0,0-3.146,0L.976,12.919a1.126,1.126,0,0,0-.253.651.884.884,0,0,0,.253.651.961.961,0,0,0,1.338,0l8.245-8.245a.35.35,0,0,1,.506,0l3,3a.358.358,0,0,1-.506.506L10.812,6.735,2.821,14.727a1.665,1.665,0,0,1-1.193.47Z" transform="translate(0 -3.3)" fill="#004884"/>
    </g>
    <g id="Group_4284" data-name="Group 4284" transform="translate(6.401 12.729)">
      <path id="Path_47299" data-name="Path 47299" d="M23.2,46.528H18.062a.362.362,0,0,1-.362-.362V39.585A1.088,1.088,0,0,1,18.785,38.5H22.51a1.081,1.081,0,0,1,1.049,1.085v6.581A.389.389,0,0,1,23.2,46.528ZM18.423,45.8h4.412v-6.22a.357.357,0,0,0-.325-.362H18.785a.362.362,0,0,0-.362.362Z" transform="translate(-17.7 -38.5)" fill="#004884"/>
    </g>
    <g id="Group_4285" data-name="Group 4285" transform="translate(12.62 5.497)">
      <path id="Path_47300" data-name="Path 47300" d="M40.18,33.724a1.382,1.382,0,0,1-1.157-.651c-1.266-2.1-4.122-7.16-4.122-9.33a5.262,5.262,0,0,1,10.523,0c0,1.519-1.374,4.629-4.05,9.33A1.5,1.5,0,0,1,40.18,33.724Zm-.036-14.5a4.522,4.522,0,0,0-4.52,4.52c0,2.025,3.074,7.377,4.014,8.968a.685.685,0,0,0,.579.325.652.652,0,0,0,.579-.325c3.218-5.677,3.905-8.028,3.905-8.968a4.53,4.53,0,0,0-4.556-4.52Z" transform="translate(-34.9 -18.5)" fill="#004884"/>
    </g>
    <g id="Group_4286" data-name="Group 4286" transform="translate(14.537 7.377)">
      <path id="Path_47301" data-name="Path 47301" d="M43.563,30.426a3.363,3.363,0,1,1,3.363-3.363A3.38,3.38,0,0,1,43.563,30.426Zm0-6a2.64,2.64,0,1,0,2.64,2.64A2.655,2.655,0,0,0,43.563,24.423Z" transform="translate(-40.2 -23.7)" fill="#004884"/>
    </g>
    <g id="Group_4287" data-name="Group 4287" transform="translate(7.485 16.2)">
      <path id="Path_47302" data-name="Path 47302" d="M21.062,49.293a.362.362,0,0,1-.362-.362v-.47a.362.362,0,0,1,.362-.362.342.342,0,0,1,.362.362v.47A.389.389,0,0,1,21.062,49.293Z" transform="translate(-20.7 -48.1)" fill="#004884"/>
    </g>
  </g>
</svg>
