<svg xmlns="http://www.w3.org/2000/svg" width="21.921" height="21.921" viewBox="0 0 21.921 21.921">
  <g id="mini" transform="translate(0.1 0.1)">
    <path id="Path_8055" data-name="Path 8055" d="M59.21,47.717H46.23a.319.319,0,0,0-.319.319V61.8a.319.319,0,0,0,.638,0V53.244H58.891V64.751H57.519a1.633,1.633,0,0,0,.345-1V60.808a4.131,4.131,0,0,0-.024-.444c0-.006,0-.012,0-.019a4.213,4.213,0,0,0-1.166-2.463V55.111a.761.761,0,0,0-.76-.76h-.8a.761.761,0,0,0-.76.76v2.771a4.213,4.213,0,0,0-1.166,2.463c0,.007,0,.013,0,.02a4.131,4.131,0,0,0-.024.443v2.938a1.633,1.633,0,0,0,.345,1H51.956a1.633,1.633,0,0,0,.345-1V59.553a3.088,3.088,0,0,0-.386-1.219h.067a.319.319,0,1,0,0-.638H47.906a.319.319,0,0,0,0,.638h.067a3.088,3.088,0,0,0-.386,1.219v4.193a1.633,1.633,0,0,0,.345,1H46.549V61.027a.319.319,0,0,0-.638,0V65.07a.319.319,0,0,0,.319.319H59.21a.319.319,0,0,0,.319-.319V48.036a.319.319,0,0,0-.319-.319ZM53.8,60.808c0-.033,0-.067,0-.1h3.423c0,.033,0,.066,0,.1v2.045H53.8V60.808Zm1.192-5.7a.123.123,0,0,1,.123-.123h.8a.123.123,0,0,1,.123.123v.718H54.99v-.718Zm-.1,3.134a.319.319,0,0,0,.1-.23V56.467h1.043v1.549a.319.319,0,0,0,.1.23,3.568,3.568,0,0,1,1.015,1.825h-3.27A3.567,3.567,0,0,1,54.892,58.246Zm-6.667,2.463h3.439v2.145H48.224Zm2.966-2.374a3.313,3.313,0,0,1,.473,1.219v.518H48.224v-.518a3.313,3.313,0,0,1,.473-1.219Zm-1.96,6.417a1.007,1.007,0,0,1-1.006-1v-.255h3.439v.255a1.007,1.007,0,0,1-1.006,1Zm5.573,0a1.007,1.007,0,0,1-1.006-1v-.255h3.428v.255a1.007,1.007,0,0,1-1.006,1ZM48,51.246a1.362,1.362,0,1,1,1.362,1.361A1.363,1.363,0,0,1,48,51.246Zm8.087,1.361a1.361,1.361,0,1,1,1.362-1.361A1.363,1.363,0,0,1,56.082,52.607Zm-1.463,0h-.437a2.011,2.011,0,0,0,.218-.28A2.009,2.009,0,0,0,54.619,52.607Zm-1.9,0a1.361,1.361,0,1,1,1.362-1.361A1.363,1.363,0,0,1,52.72,52.607Zm-1.463,0H50.82a2.011,2.011,0,0,0,.218-.28A2.015,2.015,0,0,0,51.257,52.607Zm6.288,0A2,2,0,1,0,54.4,50.165a2,2,0,0,0-3.362,0A2,2,0,1,0,47.9,52.607H46.549V48.355H58.891v4.252Z" transform="translate(-43.963 -45.693)" fill="#004884" stroke="#004884" stroke-width="0.2"/>
    <path id="Path_8056" data-name="Path 8056" d="M103.7,123.387h-.488a.319.319,0,1,0,0,.638h.488a.319.319,0,0,0,0-.638Z" transform="translate(-98.532 -118.153)" fill="#004884" stroke="#004884" stroke-width="0.2"/>
    <path id="Path_8057" data-name="Path 8057" d="M182.956,123.387h-.488a.319.319,0,0,0,0,.638h.488a.319.319,0,1,0,0-.638Z" transform="translate(-174.422 -118.153)" fill="#004884" stroke="#004884" stroke-width="0.2"/>
    <path id="Path_8058" data-name="Path 8058" d="M262.209,123.387h-.488a.319.319,0,1,0,0,.638h.488a.319.319,0,1,0,0-.638Z" transform="translate(-250.312 -118.153)" fill="#004884" stroke="#004884" stroke-width="0.2"/>
    <path id="Path_8059" data-name="Path 8059" d="M21.4,17.157a.319.319,0,0,0,.319-.319V1.643A1.645,1.645,0,0,0,20.078,0H18.784a.319.319,0,0,0-.319.319V2.024h-.952V1.643A1.645,1.645,0,0,0,15.87,0H1.643A1.645,1.645,0,0,0,0,1.643V20.078a1.645,1.645,0,0,0,1.643,1.643H15.87a1.645,1.645,0,0,0,1.643-1.643V19.7h.952V21.4a.319.319,0,0,0,.319.319h1.294a1.645,1.645,0,0,0,1.643-1.643V15.554a.319.319,0,0,0-.638,0v4.524a1.007,1.007,0,0,1-1.006,1.006H19.1V.638h.975a1.007,1.007,0,0,1,1.006,1.005V16.838a.319.319,0,0,0,.319.319ZM18.465,2.662v2.9h-.952v-2.9ZM16.876,20.078a1.007,1.007,0,0,1-1.006,1.006H1.643A1.007,1.007,0,0,1,.638,20.078V1.643A1.007,1.007,0,0,1,1.643.638H15.87a1.007,1.007,0,0,1,1.006,1.005V10.9a.319.319,0,0,0,.638,0V6.2h.952v9.07h-.952V9.615a.319.319,0,0,0-.638,0Zm.638-1.019V15.907h.952v3.152Z" transform="translate(0 0)" fill="#004884" stroke="#004884" stroke-width="0.2"/>
  </g>
</svg>
