<svg xmlns="http://www.w3.org/2000/svg" width="19.931" height="22.998" viewBox="0 0 19.931 22.998">
  <g id="outline" transform="translate(-19.541 -16)">
    <path id="Path_8038" data-name="Path 8038" d="M66.782,26.761v-.412a4.216,4.216,0,1,0-8.432,0v1.533H56.816a.383.383,0,0,0-.383.383V29.8a.383.383,0,0,0,.383.383h.038l.363,3.45H55.666V17.15a1.15,1.15,0,1,0-2.3,0V33.632H49.533a.767.767,0,0,0-.767.767v1.1l-.755,3.021a.383.383,0,0,0,.372.476H66.4a.383.383,0,0,0,.383-.383V37.1l.541-5.14a1.173,1.173,0,0,0,.609-1.035V28.17A1.44,1.44,0,0,0,66.782,26.761Zm-7.666-.412a3.45,3.45,0,0,1,6.9,0v.383H62.469a1.44,1.44,0,0,0-1.409,1.15H59.116Zm-1.916,2.3h3.833v.767H57.2Zm.426,1.533h3.407v.746a1.188,1.188,0,0,0,.353.84,1.131,1.131,0,0,0,.814.331,1.155,1.155,0,0,0,.749-.294,1.148,1.148,0,0,0,1.533,0,1.148,1.148,0,0,0,1.533,0,1.138,1.138,0,0,0,.525.267L66.053,36.7H60.565l-.3-1.2V34.4a.767.767,0,0,0-.767-.767H57.988ZM54.133,17.15a.383.383,0,1,1,.767,0V33.632h-.767ZM49.533,34.4H59.5v.767H49.533Zm.874,3.833.575-2.3h.743l-.575,2.3Zm-.958-2.3h.743l-.575,2.3h-.743Zm3.066,0h.8l-.287,2.3H51.941Zm1.285,2.3.287-2.3h.856l.287,2.3Zm2.2,0-.287-2.3h.8l.575,2.3Zm1.877,0-.575-2.3h.743l.575,2.3Zm1.533,0-.575-2.3h.743l.575,2.3Zm6.6,0H60.948l-.192-.767h5.259Zm1.15-8.432v1.128a.4.4,0,0,1-.364.4.383.383,0,0,1-.4-.383V29.415h-.767v1.533a.383.383,0,1,1-.767,0V29.415H64.1v1.533a.383.383,0,0,1-.767,0V29.415h-.767v1.533a.383.383,0,0,1-.377.383h-.005a.369.369,0,0,1-.259-.11.416.416,0,0,1-.125-.294V28.17a.671.671,0,0,1,.671-.671h4.025a.671.671,0,0,1,.671.671Z" transform="translate(-28.459)" fill="#004884"/>
    <rect id="Rectangle_3053" data-name="Rectangle 3053" width="0.433" height="1.731" transform="translate(36.244 34.237)" fill="#004884"/>
    <rect id="Rectangle_3054" data-name="Rectangle 3054" width="0.433" height="0.865" transform="translate(36.244 32.506)" fill="#004884"/>
  </g>
</svg>
