<svg id="social-media" xmlns="http://www.w3.org/2000/svg" width="21.347" height="21.347" viewBox="0 0 21.347 21.347">
  <path id="Artboard1" d="M0,0H21.347V21.347H0Z" fill="none" fill-rule="evenodd"/>
  <g id="Artboard11" transform="translate(0.917 0.917)">
    <path id="Path_47333" data-name="Path 47333" d="M15.534,22.262h1.642a5.089,5.089,0,0,0,5.087-5.087V7.837A5.089,5.089,0,0,0,17.176,2.75H7.837A5.089,5.089,0,0,0,2.75,7.837v9.339a5.089,5.089,0,0,0,5.087,5.087h4.92a.417.417,0,1,0,0-.834H7.837a4.255,4.255,0,0,1-4.253-4.253V7.837A4.255,4.255,0,0,1,7.837,3.584h9.339a4.255,4.255,0,0,1,4.253,4.253v9.339a4.255,4.255,0,0,1-4.253,4.253H15.534a.417.417,0,1,0,0,.834Z" transform="translate(-2.75 -2.75)" fill="#004783" fill-rule="evenodd"/>
    <g id="Group_4373" data-name="Group 4373" transform="translate(7.237 3.673)">
      <path id="Path_47334" data-name="Path 47334" d="M34.6,34.325V35.9a.418.418,0,0,0,.417.417h2.1l-.291,1.829h-1.8a.417.417,0,0,0-.417.417v6.791a.417.417,0,1,0,.834,0V38.984h1.744a.418.418,0,0,0,.412-.351l.424-2.663a.417.417,0,0,0-.412-.482H35.431V34.245l-.417.417.01-.019.4-.419c-.021-.427.04-.769.361-.8h2.008a.417.417,0,0,0,.417-.417v-2.47a.417.417,0,0,0-.324-.406,6.736,6.736,0,0,0-4.6.443,2.723,2.723,0,0,0-1.462,2.428v2.481H29.881a.417.417,0,0,0-.417.417v2.663a.417.417,0,0,0,.417.417h1.937v6.374a.417.417,0,1,0,.834,0V38.567a.417.417,0,0,0-.417-.417H30.3V36.322h1.937a.417.417,0,0,0,.417-.417V33.014a2.091,2.091,0,0,1,1.582-1.96,6.282,6.282,0,0,1,3.14-.173v1.713H35.746c-.766.047-1.205.674-1.156,1.672A.371.371,0,0,0,34.6,34.325Z" transform="translate(-29.464 -29.932)" fill="#004783" fill-rule="evenodd"/>
    </g>
  </g>
</svg>
