<svg xmlns="http://www.w3.org/2000/svg" width="23.079" height="17.711" viewBox="0 0 23.079 17.711">
  <g id="tv" transform="translate(-0.258 -3.687)">
    <path id="Path_47303" data-name="Path 47303" d="M20.654,3.687H2.941A2.686,2.686,0,0,0,.258,6.372v9.974A2.685,2.685,0,0,0,2.941,19.03h6.5L7.1,20.272a.587.587,0,0,0,.49,1.067c.04-.031,4.158-2.2,4.207-2.231l4.143,2.2a.579.579,0,0,0,.275.069.59.59,0,0,0,.279-1.107L14.152,19.03h6.5a2.686,2.686,0,0,0,2.683-2.683V6.372a2.686,2.686,0,0,0-2.683-2.685Zm1.508,12.658a1.509,1.509,0,0,1-1.508,1.51H2.941a1.51,1.51,0,0,1-1.508-1.509V6.372a1.509,1.509,0,0,1,1.508-1.51H20.654a1.51,1.51,0,0,1,1.508,1.509Z" transform="translate(0 0)" fill="#004884"/>
    <path id="Path_47304" data-name="Path 47304" d="M12.289,10.024H7.869a.587.587,0,0,0,0,1.174H9.492v3.66a.587.587,0,1,0,1.174,0V11.2h1.623A.587.587,0,0,0,12.289,10.024Z" transform="translate(-1.526 -1.377)" fill="#004884"/>
    <path id="Path_47305" data-name="Path 47305" d="M20.911,10.083a.587.587,0,0,0-.785.27l-1.544,3.164-1.543-3.165a.589.589,0,0,0-1.058.517l2.073,4.247a.594.594,0,0,0,1.055,0l2.071-4.247A.587.587,0,0,0,20.911,10.083Z" transform="translate(-3.402 -1.377)" fill="#004884"/>
  </g>
</svg>
